<?xml version="1.0" standalone="no"?>
<!DOCTYPE svg PUBLIC "-//W3C//DTD SVG 20010904//EN"
 "http://www.w3.org/TR/2001/REC-SVG-20010904/DTD/svg10.dtd">
<svg version="1.0" xmlns="http://www.w3.org/2000/svg"
 width="360.000000pt" height="360.000000pt" viewBox="0 0 360.000000 360.000000"
 preserveAspectRatio="xMidYMid meet">
<metadata>
Created by potrace 1.11, written by Peter Selinger 2001-2013
</metadata>
<g transform="translate(0.000000,360.000000) scale(0.100000,-0.100000)"
fill="#000000" stroke="none">
<path d="M1420 3561 l0 -39 50 -7 c28 -4 50 -11 50 -16 0 -5 75 -9 170 -9 97
0 170 4 170 9 0 5 15 13 33 17 41 10 39 9 60 18 10 5 17 19 17 37 l0 29 -275
0 -275 0 0 -39z"/>
<path d="M1062 3452 c-7 -5 -14 -18 -17 -31 -7 -36 31 -47 115 -31 38 7 70 17
70 22 0 4 7 8 16 8 14 0 14 2 -1 16 -18 18 -161 31 -183 16z"/>
<path d="M2138 3453 c-37 -4 -46 -16 -30 -39 4 -7 51 -18 105 -25 85 -11 100
-11 108 2 13 21 11 36 -7 53 -15 16 -79 19 -176 9z"/>
<path d="M826 3334 c-14 -38 -7 -61 23 -67 15 -3 37 -4 48 -1 24 7 51 46 34
52 -6 2 -11 10 -11 18 0 21 -86 19 -94 -2z"/>
<path d="M2420 3335 c0 -8 -7 -15 -15 -15 -24 0 -17 -17 10 -24 16 -4 23 -11
19 -18 -4 -6 -3 -8 4 -4 6 3 14 2 17 -4 4 -6 26 -10 50 -9 38 2 44 6 48 28 8
39 -22 61 -83 61 -38 0 -50 -4 -50 -15z"/>
<path d="M2622 3218 c-13 -5 -13 -7 -2 -7 13 -1 13 -2 0 -11 -12 -8 -9 -10 13
-10 15 0 26 -5 25 -11 -4 -14 68 -53 82 -44 12 7 13 54 2 71 -8 14 -94 22
-120 12z"/>
<path d="M520 3060 c0 -11 1 -20 3 -20 1 0 10 9 20 20 16 19 16 20 -3 20 -13
0 -20 -7 -20 -20z"/>
<path d="M2807 3068 c4 -7 8 -17 8 -22 0 -5 8 -10 18 -12 12 -2 17 5 17 22 0
19 -5 24 -26 24 -18 0 -23 -4 -17 -12z"/>
<path d="M401 2936 c1 -24 3 -26 6 -8 2 12 9 20 14 17 5 -4 9 0 9 8 0 7 -7 14
-15 14 -10 0 -15 -10 -14 -31z"/>
<path d="M2949 2895 c-1 -8 -2 -23 -3 -32 -1 -13 8 -19 27 -21 22 -3 27 1 27
17 0 12 -7 21 -15 21 -8 0 -15 7 -15 15 0 8 -4 15 -10 15 -5 0 -11 -7 -11 -15z"/>
<path d="M3037 2783 c-4 -3 -7 -25 -7 -49 0 -33 5 -45 25 -58 28 -18 55 -21
55 -5 0 5 4 8 8 5 5 -3 9 16 11 41 1 34 -3 48 -16 59 -19 14 -65 19 -76 7z"/>
<path d="M260 2761 c-14 -27 -13 -81 3 -81 9 0 9 -2 -1 -9 -10 -6 -9 -10 7
-14 12 -3 28 1 36 10 8 8 15 11 16 6 1 -4 4 6 9 24 13 55 2 83 -31 83 -18 0
-32 -7 -39 -19z"/>
<path d="M940 2745 c0 -19 -4 -35 -10 -35 -5 0 -10 -11 -10 -24 0 -17 -7 -26
-25 -30 -58 -15 -69 -41 -81 -198 -4 -48 -11 -85 -15 -82 -5 3 -9 -6 -9 -21 0
-15 -7 -28 -17 -32 -28 -10 -53 -44 -53 -70 0 -12 -4 -23 -9 -23 -5 0 -13 -28
-18 -62 l-8 -63 -38 -3 c-46 -4 -77 -32 -77 -69 0 -37 -9 -49 -44 -57 -51 -12
-56 -25 -56 -140 0 -64 4 -106 10 -106 6 0 10 -11 10 -24 0 -27 24 -56 46 -56
27 0 53 -38 56 -82 3 -42 4 -43 42 -46 44 -4 66 -21 66 -52 0 -22 21 -50 38
-50 6 0 12 -4 14 -10 2 -5 45 -13 96 -16 50 -4 92 -11 92 -15 0 -5 8 -9 18 -9
36 0 49 -32 56 -145 4 -60 11 -114 15 -120 5 -5 11 -21 13 -35 3 -23 8 -25 61
-28 33 -2 55 -7 52 -13 -4 -5 11 -9 34 -9 23 0 41 4 41 9 0 5 10 11 22 13 19
2 23 11 26 48 4 50 13 60 55 60 15 0 27 5 27 10 0 6 6 10 14 10 14 0 26 29 26
67 0 25 11 29 98 38 34 4 62 11 62 16 0 5 63 9 139 9 117 0 140 -2 145 -16 3
-8 10 -13 15 -9 5 3 13 -20 16 -50 5 -37 12 -55 21 -55 8 0 14 -4 14 -10 0 -5
7 -10 16 -10 23 0 44 -25 44 -52 0 -47 13 -53 100 -51 104 3 110 9 111 110 0
49 3 71 8 58 5 -13 11 13 16 78 7 96 7 97 33 98 45 1 87 10 97 20 16 16 74 10
95 -11 23 -23 29 -115 8 -123 -16 -5 -14 -220 2 -225 5 -2 10 -16 10 -31 0
-16 9 -39 21 -52 20 -23 27 -24 175 -28 85 -2 152 -7 149 -11 -3 -4 17 -8 43
-7 51 0 95 -10 88 -21 -2 -4 4 -19 15 -32 18 -24 20 -24 33 -7 10 13 11 28 5
57 -5 22 -8 45 -7 52 2 7 -7 14 -19 16 -13 2 -23 9 -23 17 0 7 -4 15 -10 17
-5 2 -12 63 -16 136 -4 73 -11 135 -16 138 -4 3 -8 18 -8 34 0 43 -10 60 -34
60 -39 0 -54 32 -62 130 -7 97 -15 110 -67 110 -26 0 -37 21 -37 73 0 15 -4
27 -9 27 -5 0 -12 23 -16 51 -4 27 -9 48 -12 45 -3 -3 -12 1 -20 9 -8 8 -25
15 -37 15 -25 0 -36 29 -36 90 0 28 -19 40 -66 40 -24 0 -34 17 -34 62 0 38
-16 53 -64 61 -48 8 -46 6 -53 58 -4 29 -11 43 -24 46 -11 3 -19 9 -19 14 0 4
-12 9 -27 11 -22 2 -29 9 -31 31 -2 15 -7 27 -11 27 -5 0 -11 9 -14 19 -4 16
-15 20 -53 23 l-49 3 -3 40 c-4 47 -14 55 -65 55 -23 0 -36 4 -32 10 3 6 -3
10 -14 10 -11 0 -26 6 -33 13 -7 6 -25 18 -39 26 -15 7 -32 23 -39 36 -10 19
-22 23 -96 28 -47 3 -147 3 -222 0 -148 -7 -161 -12 -162 -63 0 -34 -33 -60
-76 -60 -34 0 -49 8 -82 43 -9 9 -22 17 -29 17 -7 0 -13 9 -13 19 0 11 -5 21
-12 23 -7 3 -14 32 -16 76 -2 40 -8 72 -13 72 -4 0 -9 21 -11 48 l-3 47 -102
3 -103 3 0 -36z"/>
<path d="M3157 2626 c-18 -14 -23 -46 -8 -61 5 -6 11 -39 13 -74 3 -37 10 -67
16 -69 7 -2 12 -22 13 -45 0 -33 2 -38 9 -22 5 11 9 16 9 10 1 -5 5 -4 10 4
17 27 23 128 11 187 -16 76 -37 96 -73 70z"/>
<path d="M153 2541 c-19 -18 -11 -139 9 -152 10 -7 10 -9 -2 -9 -10 0 -11 -3
-4 -8 6 -4 14 -14 17 -22 3 -9 6 -4 6 13 1 15 5 27 10 27 8 0 26 66 23 83 -1
4 3 7 8 7 6 0 10 9 10 20 0 11 -4 20 -9 20 -5 0 -11 8 -13 18 -6 23 -34 24
-55 3z"/>
<path d="M3287 2200 c-15 -18 -17 -47 -17 -251 0 -144 4 -228 10 -224 5 3 16
-16 24 -42 l15 -48 0 36 c1 22 9 46 22 60 21 23 21 30 14 209 -3 101 -11 192
-16 202 -5 10 -8 18 -5 18 3 0 0 14 -5 30 -13 35 -19 37 -42 10z"/>
<path d="M5 2108 c-3 -18 -5 -121 -3 -228 l3 -195 30 1 c17 0 29 5 28 11 -1 6
9 16 22 23 l25 13 0 174 c0 109 -4 173 -10 173 -5 0 -10 7 -10 15 0 8 -7 15
-15 15 -8 0 -15 7 -15 16 0 14 -3 14 -15 4 -10 -9 -15 -9 -15 -1 0 25 -20 9
-25 -21z"/>
<path d="M160 1430 c-11 -7 -15 -27 -15 -75 0 -67 9 -85 46 -85 22 0 29 58 16
120 -8 36 -11 41 -17 25 -7 -19 -8 -19 -11 2 -3 17 -8 20 -19 13z"/>
<path d="M3181 1422 c-27 -29 -26 -185 1 -179 6 1 22 11 35 21 19 16 23 29 23
73 0 79 -28 119 -59 85z"/>
<path d="M263 1155 c-19 -21 -16 -73 5 -95 19 -20 61 -18 63 4 1 6 2 23 3 39
3 30 -23 67 -45 67 -8 -1 -20 -7 -26 -15z"/>
<path d="M3066 1154 c-3 -8 -10 -12 -16 -9 -10 6 -14 -19 -10 -65 2 -31 4 -32
34 -32 34 0 56 24 56 62 0 49 -49 83 -64 44z"/>
<path d="M375 990 c-6 -10 6 -50 16 -50 5 0 9 -5 9 -11 0 -5 -4 -7 -10 -4 -6
3 -10 -4 -10 -17 0 -18 2 -20 10 -8 7 11 10 8 10 -15 0 -29 2 -31 35 -27 30 4
35 7 29 24 -7 24 -40 58 -48 51 -3 -4 -6 3 -6 15 0 12 5 22 10 22 7 0 6 5 -2
13 -13 14 -36 18 -43 7z"/>
<path d="M520 771 c0 -14 6 -19 20 -18 24 2 24 4 6 23 -20 19 -26 18 -26 -5z"/>
<path d="M2828 753 c7 -3 16 -2 19 1 4 3 -2 6 -13 5 -11 0 -14 -3 -6 -6z"/>
<path d="M627 662 c-6 -31 6 -42 46 -42 15 0 27 -4 27 -10 0 -5 16 -10 36 -10
21 0 33 4 29 10 -3 6 -1 10 4 10 17 0 13 27 -5 34 -9 3 -28 6 -44 6 -16 0 -30
5 -32 11 -2 7 -16 13 -30 15 -21 2 -27 -3 -31 -24z"/>
<path d="M2716 665 c5 -12 4 -16 -3 -12 -6 4 -14 1 -16 -5 -4 -10 -6 -10 -6 0
-1 10 -6 10 -21 2 -11 -6 -20 -8 -20 -4 0 3 -8 0 -17 -7 -15 -12 -16 -12 -8 1
6 12 5 13 -5 3 -21 -19 -10 -22 58 -16 63 6 77 18 47 43 -13 11 -14 10 -9 -5z"/>
<path d="M849 562 c-27 -3 -38 -22 -31 -54 2 -10 10 -18 18 -18 8 0 14 -5 14
-11 0 -6 14 -9 32 -7 25 2 34 9 38 28 13 52 -7 70 -71 62z"/>
<path d="M2450 545 c0 -8 -4 -15 -10 -15 -5 0 -10 -7 -10 -16 0 -56 112 -59
120 -3 7 44 1 49 -50 49 -38 0 -50 -4 -50 -15z"/>
<path d="M988 439 c-24 -14 -23 -39 2 -39 11 0 20 -4 20 -9 0 -13 43 -22 133
-27 91 -6 113 -1 120 26 4 15 0 20 -15 20 -10 0 -16 5 -13 10 4 6 -8 10 -27
11 -18 0 -44 2 -58 4 -83 11 -147 13 -162 4z"/>
<path d="M2160 433 c-53 -5 -70 -22 -51 -52 6 -9 39 -15 103 -18 103 -6 123 3
116 49 -3 21 -8 23 -63 24 -33 0 -80 -1 -105 -3z"/>
<path d="M1575 332 c-44 -2 -82 -7 -85 -12 -5 -8 -78 -20 -135 -21 l-20 -1 20
-8 c11 -5 47 -12 79 -15 36 -4 54 -10 46 -15 -18 -11 172 -23 294 -19 68 3
101 8 104 17 2 7 21 12 48 12 24 0 44 5 44 10 0 6 1 13 3 17 1 4 -18 9 -43 11
-25 2 -47 7 -50 12 -6 9 -189 16 -305 12z"/>
</g>
</svg>
